<svg xmlns="http://www.w3.org/2000/svg" class="w-0 invisible sm:visible sm:w-auto h-12 -ml-1 stroke-current fill-current" x="0px" y="0px" viewBox="140 0 808.72 157.45"
  style="enable-background:new 0 0 808.72 157.45;" xml:space="preserve">
  <style type="text/css">
    .st0 {
      fill: none;
      stroke-width: 5;
      stroke-miterlimit: 10;
    }
  </style>
  <g>
    <path d="M228.16,56.55h-21.78v59.23h-14.65V56.55h-21.48V44.68h57.91V56.55z" />
    <path d="M279.29,84.96h-28.12v19.04h33.01v11.77h-47.66V44.68h47.56v11.87h-32.91v16.94h28.12V84.96z" />
    <path d="M329.63,97.12c0-2.77-0.98-4.89-2.93-6.37c-1.95-1.48-5.47-3.04-10.55-4.69c-5.08-1.64-9.1-3.26-12.06-4.86
c-8.07-4.36-12.11-10.24-12.11-17.63c0-3.84,1.08-7.27,3.25-10.28c2.16-3.01,5.27-5.36,9.33-7.06c4.05-1.69,8.6-2.54,13.65-2.54
c5.08,0,9.6,0.92,13.57,2.76c3.97,1.84,7.06,4.44,9.25,7.79c2.2,3.35,3.3,7.16,3.3,11.43h-14.65c0-3.25-1.03-5.79-3.08-7.59
s-4.93-2.71-8.64-2.71c-3.58,0-6.36,0.76-8.35,2.27c-1.99,1.51-2.98,3.51-2.98,5.98c0,2.31,1.16,4.25,3.49,5.81
c2.33,1.56,5.75,3.03,10.28,4.39c8.33,2.51,14.4,5.62,18.21,9.33s5.71,8.33,5.71,13.87c0,6.15-2.33,10.98-6.98,14.48
c-4.66,3.5-10.92,5.25-18.8,5.25c-5.47,0-10.45-1-14.94-3s-7.92-4.74-10.28-8.23c-2.36-3.48-3.54-7.52-3.54-12.11h14.7
c0,7.85,4.69,11.77,14.06,11.77c3.48,0,6.2-0.71,8.15-2.12S329.63,99.66,329.63,97.12z" />
    <path d="M368.88,104.01h31.1v11.77h-45.75V44.68h14.65V104.01z" />
    <path d="M449.45,101.13h-25.68l-4.88,14.65h-15.58l26.46-71.09h13.57l26.61,71.09h-15.58L449.45,101.13z M427.72,89.26h17.77
l-8.94-26.61L427.72,89.26z" />
    <path d="M557.31,92.09c-0.55,7.65-3.38,13.67-8.47,18.07c-5.1,4.39-11.81,6.59-20.14,6.59c-9.12,0-16.28-3.07-21.51-9.2
c-5.22-6.14-7.84-14.56-7.84-25.27v-4.35c0-6.84,1.21-12.86,3.61-18.07c2.41-5.21,5.85-9.2,10.33-11.99
c4.47-2.78,9.68-4.17,15.6-4.17c8.2,0,14.81,2.2,19.82,6.59s7.91,10.56,8.69,18.51h-14.65c-0.36-4.59-1.63-7.92-3.83-9.99
c-2.2-2.07-5.54-3.1-10.04-3.1c-4.88,0-8.54,1.75-10.96,5.25c-2.43,3.5-3.67,8.93-3.74,16.28v5.37c0,7.68,1.16,13.3,3.49,16.85
c2.33,3.55,6,5.32,11.01,5.32c4.53,0,7.9-1.03,10.13-3.1c2.23-2.07,3.51-5.26,3.83-9.59H557.31z" />
    <path d="M607.07,101.13h-25.68l-4.88,14.65h-15.58l26.46-71.09h13.57l26.61,71.09H612L607.07,101.13z M585.34,89.26h17.77
l-8.94-26.61L585.34,89.26z" />
    <path d="M660.53,89.75h-11.67v26.03h-14.65V44.68h26.42c8.4,0,14.88,1.87,19.43,5.62c4.56,3.74,6.84,9.03,6.84,15.87
c0,4.85-1.05,8.9-3.15,12.13c-2.1,3.24-5.28,5.82-9.55,7.74l15.38,29.05v0.68h-15.72L660.53,89.75z M648.86,77.88h11.82
c3.68,0,6.53-0.94,8.54-2.81c2.02-1.87,3.03-4.45,3.03-7.74c0-3.35-0.95-5.99-2.86-7.91c-1.9-1.92-4.83-2.88-8.77-2.88h-11.77
V77.88z" />
    <path d="M737.59,104.01h31.1v11.77h-45.75V44.68h14.65V104.01z" />
    <path d="M832.36,81.84c0,7-1.24,13.13-3.71,18.41s-6.01,9.34-10.62,12.21c-4.61,2.87-9.89,4.3-15.85,4.3
c-5.89,0-11.15-1.42-15.77-4.25s-8.2-6.88-10.74-12.13c-2.54-5.26-3.82-11.3-3.86-18.14v-3.52c0-7,1.26-13.16,3.79-18.48
c2.52-5.32,6.09-9.41,10.69-12.26c4.61-2.85,9.87-4.27,15.79-4.27s11.19,1.42,15.8,4.27c4.61,2.85,8.17,6.93,10.69,12.26
c2.52,5.32,3.78,11.47,3.78,18.43V81.84z M817.52,78.62c0-7.45-1.33-13.12-4-16.99c-2.67-3.87-6.48-5.81-11.43-5.81
c-4.92,0-8.71,1.91-11.38,5.74c-2.67,3.83-4.02,9.43-4.05,16.82v3.47c0,7.26,1.33,12.89,4,16.89s6.51,6.01,11.52,6.01
c4.92,0,8.69-1.93,11.33-5.79s3.97-9.48,4-16.87V78.62z" />
    <path d="M892.37,56.55h-21.78v59.23h-14.65V56.55h-21.48V44.68h57.91V56.55z" />
  </g>
  <rect x="10.77" y="11.16" class="st0" width="906.27" height="135.13" />
</svg>
